<?xml version="1.0" encoding="UTF-8"?>
<svg xmlns="http://www.w3.org/2000/svg" xmlns:xlink="http://www.w3.org/1999/xlink" viewBox="0 0 519.62 543.91">
  <defs>
    <style>
      .cls-1, .cls-2, .cls-3, .cls-4, .cls-5, .cls-6, .cls-7, .cls-8, .cls-9, .cls-10, .cls-11, .cls-12, .cls-13, .cls-14, .cls-15, .cls-16, .cls-17, .cls-18, .cls-19, .cls-20, .cls-21, .cls-22, .cls-23, .cls-24 {
        stroke-width: 0px;
      }

      .cls-1, .cls-2, .cls-4, .cls-8, .cls-13, .cls-15, .cls-17, .cls-25, .cls-22, .cls-24 {
        mix-blend-mode: multiply;
      }

      .cls-1, .cls-16 {
        fill: #7a7a7a;
      }

      .cls-1, .cls-23 {
        opacity: .2;
      }

      .cls-2, .cls-4, .cls-15, .cls-22 {
        opacity: .5;
      }

      .cls-2, .cls-10 {
        fill: #fbbc86;
      }

      .cls-3 {
        fill: #f9dabf;
      }

      .cls-4 {
        fill: #1194cf;
      }

      .cls-5 {
        fill: #e6e6e6;
      }

      .cls-6 {
        fill: #034660;
      }

      .cls-26 {
        isolation: isolate;
      }

      .cls-7, .cls-27 {
        opacity: .15;
      }

      .cls-7, .cls-18, .cls-23 {
        fill: #fff;
      }

      .cls-8, .cls-11 {
        fill: #487092;
      }

      .cls-8, .cls-13, .cls-17, .cls-28, .cls-25 {
        opacity: .3;
      }

      .cls-9 {
        fill: #108dc5;
      }

      .cls-12, .cls-17 {
        fill: #a4d4e9;
      }

      .cls-13, .cls-19, .cls-24 {
        fill: #1f698f;
      }

      .cls-14, .cls-29 {
        fill: none;
      }

      .cls-15, .cls-20 {
        fill: #0f85ba;
      }

      .cls-30, .cls-31, .cls-32 {
        fill: #373737;
      }

      .cls-30, .cls-32 {
        font-size: 7.48px;
      }

      .cls-33, .cls-34 {
        font-family: Marske, Marske;
      }

      .cls-34 {
        letter-spacing: 0em;
      }

      .cls-31 {
        font-size: 29.27px;
      }

      .cls-35 {
        clip-path: url(#clippath);
      }

      .cls-36 {
        font-family: Parchment-Regular, Parchment;
      }

      .cls-37 {
        font-family: MyriadPro-Regular, 'Myriad Pro';
      }

      .cls-32 {
        font-family: AdobeHeitiStd-Regular, 'AdobeHeitiStd Regular-GBpc-EUC-H';
      }

      .cls-21, .cls-22 {
        fill: #f06060;
      }

      .cls-29 {
        stroke: #fbbc86;
        stroke-miterlimit: 10;
      }
    </style>
    <clipPath id="clippath">
      <rect class="cls-14" width="500" height="500"/>
    </clipPath>
  </defs>
  <g class="cls-26">
    <g id="BACKGROUND">
      <rect class="cls-12" width="500" height="500"/>
      <circle class="cls-17" cx="250" cy="242.25" r="175.75"/>
    </g>
    <g id="OBJECTS">
      <g class="cls-35">
        <g>
          <g>
            <g>
              <polygon class="cls-10" points="224.12 232.26 224.12 192.92 180.42 187.95 184.55 232.26 224.12 232.26"/>
              <polygon class="cls-2" points="224.12 232.26 224.12 192.92 180.42 187.95 184.55 232.26 224.12 232.26"/>
              <path class="cls-10" d="m349.47,257.21c-14-15.4-19.13-42.92-19.13-42.92-5.13-7.37-15.33-27.31-21.21-39.06-5.01-9.87-11.65-4.62-12.13-4.22-19.69,17.62,4.41,55.88,4.41,55.88-2.33,14.46,6.06,33.13,6.06,33.13-10.27,6.53-18.66,36.86-18.66,36.86-10.73,51.79,28.46,55.99,28.46,55.99,36.39,5.13,42.92-54.12,42.92-54.12,4.2-25.66-10.73-41.53-10.73-41.53Z"/>
              <path class="cls-6" d="m389.53,359.4c-1.97-2.99-23.89,7.94-48.97,24.42-25.09,16.48-43.83,32.27-41.86,35.25,1.96,2.99,23.89-7.95,48.97-24.43,25.08-16.48,43.82-32.26,41.86-35.25Z"/>
              <path class="cls-10" d="m392.35,391.6c-43.38-51.34-33.03-87.21-33.03-87.21l-142.52,13.74s34.48,64.62,68.28,62.85l111.25,161.11h107.56l-111.54-150.49Z"/>
              <path class="cls-2" d="m311.2,296.62l-3.72-36.61c-10.27,6.53-18.66,36.86-18.66,36.86-1.1,5.33-1.65,10.12-1.8,14.49l-70.22,6.77s8.26,15.47,20.65,31.07c5.69,1.96,11.78,3.04,18.14,3.04,30.72,0,55.62-24.9,55.62-55.62Z"/>
              <path class="cls-2" d="m364.94,429.05l-47.32-69.65c-9.12,21.66-32.54,21.58-32.54,21.58l39.78,57.6,40.09-9.53Z"/>
              <path class="cls-29" d="m305.08,419.37l-.19-.28c-.78.55-.66.63.19.28Z"/>
              <path class="cls-9" d="m390.76,364.62c-9.54,5.9-21.89,15.71-37.33,26.19-.11.07-.21.14-.32.21-.44.3-.87.59-1.32.89-.41.27-.81.55-1.22.82-.26.17-.51.34-.76.51-.71.47-1.42.94-2.14,1.42-.73.48-1.45.95-2.17,1.42-.19.12-.38.24-.56.37-.59.38-1.18.76-1.77,1.14-.1.06-.19.12-.29.18-18.47,11.82-34.32,20.21-39.62,23.43l83.13,122.72,133.24-1.82-128.85-177.47Z"/>
              <polygon class="cls-18" points="411.25 401.87 513.12 542.18 519.62 542.09 415.54 398.75 411.25 401.87"/>
              <polygon class="cls-18" points="409.86 410.92 401.27 417.16 492.24 542.46 505.24 542.29 409.86 410.92"/>
              <path class="cls-4" d="m310.22,431.48l47.81,70.58c6.32-.65,65.28-52.12,73.58-81.18l-33.68-46.39c-4.5,6.06-20.56,18.86-40.73,32.11-21.55,14.16-40.75,24.21-46.99,24.88Z"/>
              <path class="cls-20" d="m423.17,405.75h0s-33.64-46.35-33.64-46.35c1.96,2.99-16.78,18.77-41.86,35.25-25.08,16.48-47.01,27.42-48.97,24.43l32.79,48.42c2.99,2.29,24.18-8.33,49.03-25.02,25.55-17.17,44.65-33.61,42.65-36.73Z"/>
              <path class="cls-18" d="m423.17,405.74l-33.64-46.33c.54.83-.51,2.65-2.85,5.19,6.45,9.04,29.3,40.34,32.19,44.29l1.54,2.1c2.27-2.56,3.29-4.39,2.75-5.24h0Z"/>
              <path class="cls-18" d="m382.31,368.87c-2.29,2.07-5.04,4.38-8.19,6.88,8.53,12.22,31.8,45.23,32.97,46.89l.2.28c3.11-2.51,5.83-4.84,8.12-6.94l-33.1-47.11Z"/>
              <path class="cls-15" d="m336.88,401.53c-20.3,12.52-36.51,20.11-38.19,17.56l32.79,48.42c2.54,1.94,18.15-5.4,37.99-17.85l-32.6-48.12Z"/>
              <g>
                <path class="cls-18" d="m279.87,178.79h-60.55c-14,0-25.34,11.35-25.34,25.34v82.64c0,30.72,24.9,55.62,55.62,55.62s55.62-24.9,55.62-55.62v-82.64c0-14-11.35-25.34-25.34-25.34Z"/>
                <path class="cls-18" d="m279.87,178.79h-60.55c-14,0-25.34,11.35-25.34,25.34v82.64c0,30.72,24.9,55.62,55.62,55.62s55.62-24.9,55.62-55.62v-82.64c0-14-11.35-25.34-25.34-25.34Z"/>
                <path class="cls-19" d="m249.59,334.15c13.04,0,24.87-5.3,33.45-13.86-1.43-17.23-15.85-30.76-33.45-30.76s-32.02,13.54-33.45,30.76c8.58,8.56,20.41,13.86,33.45,13.86Z"/>
                <path class="cls-13" d="m248.01,289.57v44.54c.53.02,1.05.04,1.58.04s1.06-.02,1.58-.04v-44.54c-.53-.02-1.05-.04-1.58-.04s-1.06.01-1.58.04Z"/>
                <g class="cls-28">
                  <polygon class="cls-24" points="225.92 311.84 240.33 318.76 240.33 311.84 240.33 304.92 225.92 311.84"/>
                  <polygon class="cls-24" points="273.27 311.84 258.85 304.92 258.85 311.84 258.85 318.76 273.27 311.84"/>
                </g>
                <path class="cls-19" d="m249.59,335.4c-26.82,0-48.63-21.82-48.63-48.63v-82.64c0-10.12,8.23-18.36,18.36-18.36h60.55c10.12,0,18.36,8.23,18.36,18.36v82.64c0,26.82-21.82,48.63-48.63,48.63Zm-30.28-147.13c-8.74,0-15.86,7.11-15.86,15.86v82.64c0,25.44,20.7,46.13,46.13,46.13s46.13-20.69,46.13-46.13v-82.64c0-8.74-7.11-15.86-15.86-15.86h-60.55Z"/>
                <rect class="cls-16" x="211.98" y="203.59" width="75.22" height="45.69"/>
                <g>
                  <text class="cls-30" transform="translate(214.53 210.97)"><tspan class="cls-33" x="0" y="0">8</tspan><tspan class="cls-36" x="3.84" y="0">:</tspan><tspan class="cls-33" x="4.71" y="0">00 am</tspan></text>
                  <text class="cls-30" transform="translate(252.21 210.97)"><tspan class="cls-33" x="0" y="0">17</tspan><tspan class="cls-37" x="7.68" y="0">/</tspan><tspan class="cls-33" x="10.24" y="0">08</tspan><tspan class="cls-37" x="17.92" y="0">/</tspan><tspan class="cls-33" x="20.49" y="0">2018</tspan></text>
                  <text class="cls-31" transform="translate(233.04 235.31)"><tspan class="cls-33" x="0" y="0">5</tspan><tspan class="cls-37" x="15.01" y="0">.</tspan><tspan class="cls-34" x="21.07" y="0">5</tspan></text>
                  <text class="cls-32" transform="translate(238.88 246.54)"><tspan x="0" y="0">mg/dl</tspan></text>
                </g>
                <g>
                  <path class="cls-19" d="m236.67,264.44c0,3.63-2.95,6.58-6.58,6.58h-11.92c-3.63,0-6.58-2.95-6.58-6.58h0c0-3.63,2.95-6.58,6.58-6.58h11.92c3.63,0,6.58,2.95,6.58,6.58h0Z"/>
                  <path class="cls-19" d="m287.6,264.44c0,3.63-2.95,6.58-6.58,6.58h-11.92c-3.63,0-6.58-2.95-6.58-6.58h0c0-3.63,2.95-6.58,6.58-6.58h11.92c3.63,0,6.58,2.95,6.58,6.58h0Z"/>
                </g>
                <path class="cls-19" d="m255.73,264.44c0,3.39-2.75,6.14-6.14,6.14s-6.13-2.75-6.13-6.14,2.75-6.13,6.13-6.13,6.14,2.75,6.14,6.13Z"/>
                <g>
                  <path class="cls-18" d="m249.55,265.15c-.26,0-.48-.21-.48-.48v-3.57c0-.26.21-.48.48-.48s.48.21.48.48v3.57c0,.26-.21.48-.48.48Z"/>
                  <path class="cls-18" d="m249.59,268.25c-1.78,0-3.23-1.45-3.23-3.23,0-1.15.63-2.23,1.64-2.8.23-.13.52-.05.65.18.13.23.05.52-.18.65-.71.41-1.16,1.16-1.16,1.97,0,1.26,1.02,2.28,2.28,2.28s2.28-1.02,2.28-2.28c0-.81-.44-1.56-1.16-1.97-.23-.13-.31-.42-.18-.65.13-.23.42-.31.65-.18,1.01.57,1.64,1.65,1.64,2.8,0,1.78-1.45,3.23-3.23,3.23Z"/>
                </g>
                <g class="cls-25">
                  <path class="cls-19" d="m228.53,267.58c-.32,0-.65-.12-.89-.37l-3.51-3.51-3.51,3.51c-.5.5-1.3.5-1.79,0-.5-.5-.5-1.3,0-1.79l4.41-4.4c.49-.49,1.3-.49,1.79,0l4.41,4.41c.49.49.49,1.3,0,1.79-.25.25-.57.37-.9.37Z"/>
                  <path class="cls-19" d="m270.65,260.63c.32,0,.65.12.9.37l3.51,3.51,3.51-3.51c.5-.49,1.3-.49,1.79,0,.5.49.5,1.3,0,1.79l-4.4,4.41c-.5.5-1.3.5-1.79,0l-4.41-4.41c-.49-.5-.49-1.3,0-1.79.25-.25.57-.37.9-.37Z"/>
                </g>
              </g>
              <path class="cls-1" d="m193.97,212.15v74.61c0,30.72,24.9,55.62,55.62,55.62,15.51,0,29.53-6.35,39.62-16.59-55.05-20.33-82.19-73.15-95.24-113.64Z"/>
              <g>
                <g>
                  <path class="cls-10" d="m205.49,321.61c-5.93,4.61-14.48,3.53-19.09-2.4l-10.06-12.95c-4.61-5.94-3.53-14.48,2.4-19.09h0c5.93-4.61,14.48-3.53,19.09,2.4l10.06,12.96c4.61,5.93,3.53,14.48-2.4,19.09h0Z"/>
                  <path class="cls-7" d="m179.54,290.21c5.93-4.61,14.48-3.53,19.09,2.4l10.06,12.96c.82,1.06,1.46,2.2,1.92,3.39-.32-2.27-1.21-4.49-2.72-6.43l-10.06-12.96c-4.61-5.93-13.15-7.01-19.09-2.4-4.88,3.79-6.46,10.23-4.32,15.7-.66-4.67,1.12-9.55,5.12-12.65Z"/>
                  <path class="cls-2" d="m197.83,289.57c-4.61-5.93-13.15-7.01-19.09-2.4-1.18.92-2.17,2-2.96,3.18l2.67,3.44c5.18,6.67,14.79,7.88,21.46,2.7.7-.54,1.33-1.15,1.9-1.78l-3.99-5.14Z"/>
                  <path class="cls-10" d="m206.16,293.76c-6.67,5.18-16.28,3.97-21.46-2.7l-11.31-14.56c-5.18-6.67-3.97-16.28,2.7-21.46h0c6.67-5.18,16.28-3.97,21.46,2.7l11.31,14.57c5.18,6.67,3.97,16.28-2.7,21.46h0Z"/>
                  <path class="cls-7" d="m176.88,258.07c6.67-5.18,16.28-3.97,21.46,2.7l11.31,14.57c.97,1.24,1.71,2.59,2.24,3.99-.38-2.48-1.38-4.91-3.03-7.03l-11.31-14.57c-5.18-6.67-14.79-7.88-21.46-2.7-5.43,4.22-7.24,11.36-4.93,17.48-.82-5.31,1.18-10.9,5.73-14.43Z"/>
                  <path class="cls-2" d="m180.46,261.21c5.92,4.15,13.76,3.51,18.94-1.1l-1.85-2.39c-5.18-6.67-14.79-7.88-21.46-2.7-.7.54-1.32,1.14-1.9,1.78l6.28,4.41Z"/>
                  <path class="cls-3" d="m205.83,277.1s-9.78,5.08-13,16.21c0,0-13.38-13.37-6.12-20.72,0,0,6.29-7.11,19.12,4.5Z"/>
                  <path class="cls-10" d="m208.01,254.74c-4.85,6.92-14.39,8.59-21.31,3.74l-15.1-10.59c-6.92-4.85-8.59-14.39-3.74-21.31h0c4.85-6.92,14.39-8.59,21.31-3.74l15.1,10.59c6.92,4.85,8.59,14.39,3.74,21.31h0Z"/>
                  <path class="cls-7" d="m168.66,229.62c4.85-6.92,14.39-8.59,21.31-3.74l15.1,10.59c2.61,1.83,4.48,4.34,5.52,7.11-.62-3.96-2.78-7.67-6.32-10.16l-15.1-10.59c-6.92-4.85-16.46-3.18-21.31,3.74-3.02,4.3-3.51,9.62-1.78,14.19-.59-3.77.21-7.77,2.58-11.15Z"/>
                  <path class="cls-2" d="m172.78,222.11l10.53,7.39c5.01,3.52,11.4,3.59,16.39.73l-10.53-7.39c-5.02-3.52-11.4-3.59-16.39-.73Z"/>
                  <path class="cls-3" d="m202.41,238.61s-9.07.7-12.55,17.88c0,0-13.6-8.78-7.83-18.95,0,0,5.47-9.19,20.39,1.06Z"/>
                  <path class="cls-10" d="m206.86,222.62c-4.85,6.92-14.39,8.59-21.31,3.74l-15.1-10.59c-6.92-4.85-8.59-14.39-3.74-21.31h0c4.85-6.92,14.39-8.59,21.31-3.74l15.1,10.59c6.92,4.85,8.59,14.39,3.74,21.31h0Z"/>
                  <path class="cls-7" d="m167.51,197.5c4.85-6.92,14.39-8.59,21.31-3.74l15.1,10.59c2.61,1.83,4.48,4.34,5.52,7.11-.62-3.96-2.78-7.67-6.32-10.16l-15.1-10.59c-6.92-4.85-16.46-3.18-21.31,3.74-3.02,4.3-3.51,9.62-1.78,14.19-.59-3.77.21-7.77,2.58-11.15Z"/>
                  <path class="cls-3" d="m199.93,205.16s-9.07.7-12.55,17.88c0,0-13.6-8.78-7.83-18.95,0,0,5.47-9.19,20.39,1.06Z"/>
                </g>
                <path class="cls-3" d="m206.41,309.21s-10.83,3.09-10.83,11.27c0,0-10.92-8.64-4.47-16.09,0,0,6.68-5.79,15.29,4.82Z"/>
              </g>
              <path class="cls-10" d="m330.34,214.29c-5.13-7.37-15.33-27.31-21.21-39.06-5.01-9.87-11.65-4.62-12.13-4.22-19.69,17.62,4.41,55.88,4.41,55.88-2.33,14.46,6.06,33.13,6.06,33.13l32.55-17.1c-6.94-13.92-9.68-28.62-9.68-28.62Z"/>
            </g>
            <path class="cls-16" d="m263.45,181.61c0,.66-.54,1.2-1.2,1.2h-25.32c-.66,0-1.2-.54-1.2-1.2h0c0-.66.54-1.2,1.2-1.2h25.32c.66,0,1.2.54,1.2,1.2h0Z"/>
            <g class="cls-27">
              <path class="cls-18" d="m319.37,214.29s5.13,27.53,19.13,42.92c0,0,14.93,15.86,10.73,41.53,0,0-.24,2.18-.88,5.65h0s0,0,0,0c-.16.85-.34,1.77-.54,2.75-1.25,8.32-2.44,34.84,23.18,71.03,2.6-1.99,4.97-3.89,7.11-5.67-21.64-33.28-20.5-57.49-19.31-65.36.21-.99.39-1.91.54-2.75,0,0,0,0,0,0h0c.64-3.48.88-5.65.88-5.65,4.2-25.66-10.73-41.53-10.73-41.53-14-15.4-19.13-42.92-19.13-42.92-5.13-7.37-15.33-27.31-21.21-39.06-5.01-9.87-11.65-4.62-12.13-4.22-.34.31-.67.62-.99.95.73.84,1.46,1.91,2.15,3.28,5.88,11.75,16.08,31.68,21.2,39.06Z"/>
            </g>
            <g>
              <path class="cls-2" d="m307.08,226.3s-22.12-31.79-13.58-51.32c-12.93,18.81,7.91,51.9,7.91,51.9-2.33,14.46,6.06,33.13,6.06,33.13-.77.49-1.53,1.12-2.27,1.86v7.28c2.41-4.29,5.1-7.92,7.94-9.72,0,0-8.4-18.66-6.06-33.13Z"/>
              <path class="cls-2" d="m322.95,352.28s-25.52-2.74-29.73-31.02c-1.46,1.85-3.04,3.6-4.73,5.25,6.15,23.92,28.79,26.35,28.79,26.35,3.63.51,6.96.37,10.03-.27-1.4,0-2.85-.09-4.36-.3Z"/>
            </g>
            <rect class="cls-11" x="240.79" y="125.19" width="17.6" height="56.42"/>
            <polygon class="cls-8" points="258.39 181.61 240.79 181.61 240.79 145.84 258.39 163.73 258.39 181.61"/>
            <rect class="cls-5" x="243.32" y="127.28" width="12.54" height="11.76"/>
            <path class="cls-3" d="m318.79,194.08c-3.49-6.63-6.96-13.47-9.59-18.71-4.53,1.01-6.36,4.2-6.36,4.2,6.04,13.86,14.86,14.49,15.95,14.52Z"/>
          </g>
          <g>
            <path class="cls-21" d="m250,75.79c-5.95,5.95-9.66,14.62-9.66,19.96s4.32,9.66,9.66,9.66,9.66-4.32,9.66-9.66-3.7-14-9.66-19.96Z"/>
            <path class="cls-22" d="m252.56,98.73c-5.33,0-9.66-4.32-9.66-9.66,0-1.25.21-2.69.6-4.24-2.02,3.97-3.17,7.95-3.17,10.9,0,5.33,4.32,9.66,9.66,9.66s9.66-4.32,9.66-9.66c0-.04,0-.08,0-.12-1.76,1.91-4.28,3.11-7.09,3.11Z"/>
            <g>
              <path class="cls-23" d="m255.05,84.9c-1.42-2.67-3.44-4.38-4.51-3.82s-.79,3.2.63,5.87c1.42,2.68,3.44,4.38,4.5,3.82,1.07-.57.79-3.2-.63-5.87Z"/>
              <path class="cls-23" d="m250.86,90.3c0,.72-.58,1.3-1.3,1.3s-1.3-.58-1.3-1.3.58-1.3,1.3-1.3,1.3.58,1.3,1.3Z"/>
              <path class="cls-23" d="m253.89,92.48c0,.43-.35.78-.78.78s-.78-.35-.78-.78.35-.78.78-.78.78.35.78.78Z"/>
            </g>
          </g>
        </g>
      </g>
    </g>
  </g>
</svg>